<svg xmlns="http://www.w3.org/2000/svg" version="1.1" xmlns:xlink="http://www.w3.org/1999/xlink" xmlns:svgjs="http://svgjs.dev/svgjs" width="1000" height="1125" viewBox="0 0 1000 1125"><g transform="matrix(1,0,0,1,0,0)"><svg viewBox="0 0 320 360" data-background-color="#ffffff" preserveAspectRatio="xMidYMid meet" height="1125" width="1000" xmlns="http://www.w3.org/2000/svg" xmlns:xlink="http://www.w3.org/1999/xlink"><g id="tight-bounds" transform="matrix(1,0,0,1,0,0)"><svg viewBox="0 0 320 360" height="360" width="320"><g><svg></svg></g><g><svg viewBox="0 0 320 360" height="360" width="320"><g><path xmlns="http://www.w3.org/2000/svg" d="M219.58 41.008c0.707 0 6.365 2.829 9.547 3.89-1.061 0.354-3.536-0.707-6.365-1.768 0.707 0 2.122 0.354 3.536 1.06-0.707-0.707-6.011-2.475-6.718-3.182M166.895 30.047c1.061-0.354 13.436 1.414 19.094 1.768 0.354-0.354-0.707-0.354-2.122-0.707 1.768-0.354 5.304 0.707 7.779 1.06-7.425 0.354-15.558-1.768-22.629-1.06-2.475 0-0.707-0.707-2.122-1.061M156.641 30.047c6.365 0 11.315 0 2.121 0.707-1.061-0.354-2.475-0.354-2.121-0.707M256.707 59.395c0.707 0 3.536 3.182 4.95 4.243-0.354 0.354-3.182-2.475-4.596-3.536 0.354 0.354 0 0-0.354-0.707M249.635 54.798c-2.829-2.475-3.889-2.475-4.243-3.889 2.475 1.414 4.243 2.829 4.243 3.889M204.022 32.522c0.354-0.354 1.061 0.354 2.829 0.707-2.122-0.354-1.768 0-1.061 0.707-2.475-0.354-3.182-0.707-2.475-1.414 1.414 0.707 1.768 0.354 0.707 0M103.602 36.765c0-0.354 1.414-1.061 2.475-1.414-1.061 0.707-0.707 1.061 1.061 0.353 0 0.354-2.122 1.061-3.536 1.768 0.707-0.354 1.414-1.414 0-0.707M211.094 28.986c-1.061 0.354-4.95-1.768-8.84-2.475-2.122-0.707 8.486 1.768 8.84 2.475M2.475 203.66c2.122 8.84 0.707 8.486 0 0M2.829 150.621c0.354-1.414 0.707-5.304 1.06-4.95-1.061 8.486-2.829 12.376-3.182 18.74 1.061-5.657-0.354 3.182-0.707 5.304 0.354 2.829 0.354-1.768 1.061-1.06 0.707 1.061-1.414 15.912-0.707 7.779-0.707 7.425 0 15.558 1.414 17.679-1.768 11.315 7.072 36.773 8.84 42.077 0.354 0.354 0-1.768 0.707-0.353 0.707 4.597 3.889 7.779 4.95 12.729 1.061 1.414 5.304 9.193 6.011 10.962 1.414 2.829 2.122 2.475 3.536 5.303 4.243 8.133 10.961 15.912 17.326 23.337 20.508 24.044 51.978 43.845 86.984 50.918 35.006 7.425 71.779 2.122 100.419-11.669 1.768-1.061 1.414-1.414 3.536-2.122 9.901-3.182 21.923-13.436 28.641-17.326 3.182-3.536 11.669-9.547 12.73-13.082 6.011-4.95 12.022-13.083 15.204-18.387 1.768-2.829 3.182-2.829 3.889-4.597-0.354 0 5.657-7.425 7.426-11.668-0.707 0-1.768 2.122-1.768 0 12.729-24.398 19.801-57.282 15.911-79.912 0.707 27.934-6.365 59.05-19.801 78.851-6.011 12.729-18.387 26.519-29.701 36.42-1.768 1.768-3.536 3.889-5.658 5.304-6.718 5.657-14.144 10.254-21.922 14.497-18.387 10.254-38.895 19.094-62.94 19.447 41.37-3.536 78.497-24.398 99.006-49.856-15.558 15.204-22.276 21.215-39.602 30.055-1.414 2.475-13.083 7.425-20.862 9.547 4.597-2.122 14.144-5.657 17.326-8.486-25.812 12.376-54.453 19.448-81.326 15.558 10.254 0 24.751 0.354 38.541-2.121 2.122-0.707 3.182-1.414 5.658-1.768 26.873-6.011 52.685-19.094 71.072-37.481-10.608 9.547-26.519 20.862-36.774 24.398 9.547-5.304 26.873-15.558 32.53-23.337-11.315 11.315-32.53 22.63-45.966 27.58-2.122 0.354 1.414-1.414-2.122 0-4.243 1.061-2.475 1.061-3.536 1.768-16.265 4.597-35.006 8.486-50.563 7.072-2.829-0.354-3.889-1.061-6.365-1.061-2.829-0.354-5.304-0.354-8.486-0.354-12.376-1.414-25.812-6.365-35.713-10.607-5.304-2.475-10.608-4.243-15.912-7.426-4.243-2.475-7.779-5.304-11.314-8.132-13.436-9.901-24.751-19.801-35.36-33.945-19.094-26.519-28.994-59.757-27.58-92.641 1.414-32.884 14.497-65.061 35.359-88.752-1.061 1.061 1.414-2.475 3.536-4.596 0 0.707-0.354 1.768 2.122-0.707 2.122-2.475-0.707-0.707 0.353-2.122 21.923-24.044 60.111-43.492 99.36-44.199 1.414-1.061 3.889-2.475 6.718-1.768 0 0.354-1.768 0.354-1.768 0.354 3.889-0.354 7.425-0.354 9.193 0.353 0.354-0.354-1.414-0.707 0-0.707 2.475 0.707 3.182 0 4.597 0.707-1.061 0-2.122 0-2.829 0.354 8.84 0 14.497 2.122 23.337 2.829-4.597-1.061-5.657-1.061-9.193-2.122 3.889 0.707 5.657 1.414 7.425 1.061-0.707 0-0.354-1.061 0.354-0.707 7.072 1.768 7.779 2.475 15.204 4.95 0.707-0.707-3.182-1.061-4.243-2.122 7.072 2.475 13.436 4.243 17.68 7.072-1.414-1.061-5.657-2.475-8.84-3.889-0.354 0.354 1.061 0.707 1.414 1.414-3.536-1.768-8.486-3.536-13.436-4.243 4.243 1.061 7.072 2.475 8.84 3.182-3.889-0.707-8.84-3.182-14.498-4.243 9.193 2.829 26.519 9.193 37.127 14.851-3.889-2.475-8.486-4.243-10.961-5.657 2.122 0.354 4.597 1.768 4.597 1.06 2.475 1.061 5.657 3.536 7.425 3.89-3.182-2.122-9.547-5.304-11.668-6.365 26.519 12.022 50.21 32.177 65.414 57.989 1.414 2.475 3.536 8.133 5.304 8.84-0.354-1.768-1.768-2.829-3.182-5.657 0.707 0 0.707-1.061 0-2.122-1.414-1.768 0 1.414-1.415-0.354-6.365-11.669-14.144-21.923-26.165-33.237 6.718 6.365 1.768 1.768 0.353-0.354 9.193 8.133 19.801 21.923 24.398 28.995-0.707-1.061-1.061-1.768-0.707-1.768 8.486 14.497 13.79 27.58 19.094 46.32 0.354 0.354 0-1.414 0.707-0.353 3.536 14.851 4.597 27.227 4.243 38.541 2.829-19.094-3.536-48.796-14.851-72.133-1.414-2.829-1.414-0.707-2.829-3.889 0-1.061-1.061-3.182-1.768-4.597-14.144-23.337-31.47-39.956-51.978-53.038 1.414 0.707 4.243 2.829 4.244 2.475-38.188-25.105-82.387-28.641-118.807-20.862-2.475 1.061-3.536 2.122-6.365 3.536 5.304-1.768 8.486-2.122 13.437-3.183 1.061-1.061-4.597 0.354-2.122-0.707 0.354 0.354 4.95-0.707 6.011-0.353 0 0.354-1.414 0.707-1.768 1.06 11.669-2.475 23.691-2.829 33.945-2.121-6.011 0.354-16.972-0.707-20.508 1.061 3.536-0.354 8.486-0.707 11.668-0.354-4.243 0-12.022 0.354-15.558 0.707-0.354-0.354 5.657-1.061 1.768-1.06-1.768 0.354-4.597 0.354-5.657 1.414-30.409 2.829-60.111 18.74-80.973 37.481-4.243 3.536-9.193 7.425-12.375 11.314-7.779 8.84-12.729 17.68-18.387 25.459 3.536-7.425 11.315-18.74 20.508-28.287 9.193-9.547 19.094-17.68 24.398-21.923 0 1.414 8.486-5.304 11.669-7.425-2.122 1.768 1.414-0.707 2.121-0.354 11.315-6.718 20.508-9.193 30.763-13.083-2.475 0.707-4.597 1.414-4.951 1.061 2.475-0.707 3.889-1.414 3.536-1.768-9.901 2.829-25.459 9.547-37.834 16.972 22.276-15.204 50.564-24.398 78.497-24.751 27.934-0.707 55.16 6.365 76.729 17.68 14.497 6.365 28.287 18.033 39.249 29.348 3.182 2.829 0.707-0.707 5.304 4.243-1.414-0.707-2.475-1.414-0.707 0.707 2.829 3.182-0.707-2.475 3.889 3.182-0.354 0-1.768-1.768-1.768-1.061 12.376 10.961 21.923 30.762 27.58 43.846-1.414-5.304-4.95-12.729-7.779-18.033 8.486 15.558 11.315 24.751 14.851 38.541 1.414 1.061-0.707-4.95 0.707-2.121 0.354 2.122 0.707 8.84 2.122 9.9-1.061-6.718-2.829-14.851-4.243-16.265 1.061 0.707-1.768-8.133-3.536-10.254-0.707-5.657-5.657-15.558-9.901-22.984-15.204-29.702-42.431-54.099-72.839-67.536 0-0.707-1.768-1.414-2.476-2.121-30.055-12.729-66.122-16.265-100.773-8.133-35.006 8.486-67.889 28.641-91.227 57.636 1.061-3.536 9.901-10.254 10.255-13.083-10.254 10.961-21.215 25.459-28.641 41.016-7.779 15.558-12.022 31.47-13.79 43.138" fill="#ca3433" fill-rule="nonzero" stroke="none" stroke-width="1" stroke-linecap="butt" stroke-linejoin="miter" stroke-miterlimit="10" stroke-dasharray="" stroke-dashoffset="0" font-family="none" font-weight="none" font-size="none" text-anchor="none" style="mix-blend-mode: normal" data-fill-palette-color="tertiary"></path></g><g transform="matrix(1,0,0,1,48,149.38957816377172)"><svg viewBox="0 0 224 61.22084367245658" height="61.22084367245658" width="224"><g><svg viewBox="0 0 224 61.22084367245658" height="61.22084367245658" width="224"><g><svg viewBox="0 0 224 61.22084367245658" height="61.22084367245658" width="224"><g><svg viewBox="0 0 224 61.22084367245658" height="61.22084367245658" width="224"><g id="textblocktransform"><svg viewBox="0 0 224 61.22084367245658" height="61.22084367245658" width="224" id="textblock"><g><svg viewBox="0 0 224 61.22084367245658" height="61.22084367245658" width="224"><g transform="matrix(1,0,0,1,0,0)"><svg width="224" viewBox="-1.0499999523162842 -38.29999923706055 141.04000854492188 38.54999923706055" height="61.22084367245658" data-palette-color="#ca3433"><path d="M18.4-1Q17.15-0.8 15.65-0.55 14.15-0.3 12.95-0.1L12.95-0.1Q13.15-1.75 13.35-3.35L13.35-3.35Q13.5-4.75 13.63-6.15 13.75-7.55 13.85-8.55L13.85-8.55 9.5-8.55 7.5-1.35Q6.4-1.2 4.9-1.03 3.4-0.85 2.1-0.7L2.1-0.7Q0.5-0.5-1.05-0.3L-1.05-0.3Q0.95-6.95 2.9-13.4L2.9-13.4Q3.7-16.1 4.58-19.05 5.45-22 6.33-24.93 7.2-27.85 8-30.55 8.8-33.25 9.4-35.5L9.4-35.5Q12.8-35.75 16.32-36.1 19.85-36.45 23.2-37.05L23.2-37.05Q23.05-35.45 22.88-33.08 22.7-30.7 22.55-27.9 22.4-25.1 22.25-22.05 22.1-19 21.95-16.05L21.95-16.05Q21.7-9.15 21.4-1.4L21.4-1.4Q19.9-1.15 18.4-1L18.4-1ZM13.8-26.1L10.7-13.55Q10.9-13.55 11.43-13.58 11.95-13.6 12.53-13.63 13.1-13.65 13.6-13.68 14.1-13.7 14.3-13.75L14.3-13.75Q14.3-14.05 14.38-14.78 14.45-15.5 14.53-16.43 14.6-17.35 14.7-18.45 14.8-19.55 14.9-20.6L14.9-20.6Q15.1-23.15 15.4-26.1L15.4-26.1 15.7-30.45 14.95-30.4 13.8-26.1ZM29.95-2.05L21.85 0.05Q23.2-6.6 24.45-12.95L24.45-12.95Q24.9-15.65 25.45-18.57 26-21.5 26.47-24.38 26.95-27.25 27.37-29.93 27.8-32.6 28.05-34.8L28.05-34.8Q30.9-35.7 34.2-36.13 37.5-36.55 40.75-36.55L40.75-36.55Q42.7-36.55 43.97-36.1 45.25-35.65 45.97-34.83 46.7-34 47-32.9 47.3-31.8 47.3-30.45L47.3-30.45Q47.3-28.45 46.6-26.53 45.9-24.6 44.72-22.88 43.55-21.15 42.02-19.73 40.5-18.3 38.75-17.4L38.75-17.4Q39.65-15.4 40.67-13.03 41.7-10.65 42.6-8.5L42.6-8.5Q43.6-6 44.65-3.5L44.65-3.5 36.9-0.8Q35.9-4.25 35.1-7.3L35.1-7.3Q34.75-8.55 34.4-9.88 34.05-11.2 33.75-12.38 33.45-13.55 33.25-14.45 33.05-15.35 33-15.85L33-15.85 32.35-15.65Q32.05-14.05 31.62-11.75 31.2-9.45 30.85-7.3L30.85-7.3Q30.4-4.75 29.95-2.05L29.95-2.05ZM35.2-29.6L33.6-21.65Q34.55-21.75 35.92-22.45 37.3-23.15 38.55-24.13 39.8-25.1 40.7-26.15 41.6-27.2 41.6-28L41.6-28Q41.6-28.55 41.25-28.88 40.9-29.2 40.27-29.38 39.65-29.55 38.9-29.6 38.15-29.65 37.35-29.65L37.35-29.65Q36.8-29.65 36.22-29.63 35.65-29.6 35.2-29.6L35.2-29.6ZM62.25-1Q61-0.8 59.5-0.55 58-0.3 56.8-0.1L56.8-0.1Q57-1.75 57.2-3.35L57.2-3.35Q57.35-4.75 57.47-6.15 57.6-7.55 57.7-8.55L57.7-8.55 53.35-8.55 51.35-1.35Q50.25-1.2 48.75-1.03 47.25-0.85 45.95-0.7L45.95-0.7Q44.35-0.5 42.8-0.3L42.8-0.3Q44.8-6.95 46.75-13.4L46.75-13.4Q47.55-16.1 48.42-19.05 49.3-22 50.17-24.93 51.05-27.85 51.85-30.55 52.65-33.25 53.25-35.5L53.25-35.5Q56.65-35.75 60.17-36.1 63.7-36.45 67.05-37.05L67.05-37.05Q66.9-35.45 66.72-33.08 66.55-30.7 66.4-27.9 66.25-25.1 66.09-22.05 65.95-19 65.8-16.05L65.8-16.05Q65.55-9.15 65.25-1.4L65.25-1.4Q63.75-1.15 62.25-1L62.25-1ZM57.65-26.1L54.55-13.55Q54.75-13.55 55.27-13.58 55.8-13.6 56.37-13.63 56.95-13.65 57.45-13.68 57.95-13.7 58.15-13.75L58.15-13.75Q58.15-14.05 58.22-14.78 58.3-15.5 58.37-16.43 58.45-17.35 58.55-18.45 58.65-19.55 58.75-20.6L58.75-20.6Q58.95-23.15 59.25-26.1L59.25-26.1 59.55-30.45 58.8-30.4 57.65-26.1ZM73.09-1.45L65.79 0.25Q67.19-6.8 68.49-13.5L68.49-13.5Q68.99-16.3 69.57-19.38 70.14-22.45 70.64-25.43 71.14-28.4 71.57-31.18 71.99-33.95 72.24-36.25L72.24-36.25Q73.79-36.35 75.24-36.45L75.24-36.45Q76.54-36.55 77.89-36.63 79.24-36.7 80.29-36.8L80.29-36.8Q80.94-32.95 81.44-29.45L81.44-29.45Q81.69-27.95 81.97-26.33 82.24-24.7 82.49-23.2 82.74-21.7 82.99-20.33 83.24-18.95 83.49-17.9L83.49-17.9Q83.69-18.95 83.94-20.33 84.19-21.7 84.49-23.23 84.79-24.75 85.12-26.35 85.44-27.95 85.74-29.45L85.74-29.45Q86.49-32.95 87.29-36.75L87.29-36.75 93.39-37.5Q91.69-30 90.39-23.3L90.39-23.3Q89.79-20.4 89.22-17.45 88.64-14.5 88.14-11.75 87.64-9 87.29-6.68 86.94-4.35 86.74-2.75L86.74-2.75Q86.59-2.75 85.57-2.53 84.54-2.3 83.22-2 81.89-1.7 80.57-1.38 79.24-1.05 78.59-0.85L78.59-0.85Q78.24-4.9 77.84-8.55L77.84-8.55Q77.69-10.1 77.49-11.75 77.29-13.4 77.12-14.9 76.94-16.4 76.77-17.73 76.59-19.05 76.44-19.95L76.44-19.95Q76.29-19.05 76.04-17.75 75.79-16.45 75.54-14.98 75.29-13.5 75.04-11.93 74.79-10.35 74.49-8.85L74.49-8.85Q73.84-5.3 73.09-1.45L73.09-1.45ZM102.44-13.3Q101.99-11.1 101.34-8.72 100.69-6.35 99.62-4.42 98.54-2.5 97.02-1.23 95.49 0.05 93.39 0.05L93.39 0.05Q91.99 0.05 90.37-0.55 88.74-1.15 86.79-2.6L86.79-2.6 90.24-10.3Q90.49-9.8 91.22-9.43 91.94-9.05 92.79-9.05L92.79-9.05Q93.39-9.05 93.87-10.05 94.34-11.05 94.69-12.38 95.04-13.7 95.24-15.1 95.44-16.5 95.54-17.35L95.54-17.35Q96.49-22.2 97.34-27.03 98.19-31.85 99.34-36.65L99.34-36.65Q101.59-36.85 103.77-37.27 105.94-37.7 108.14-38.3L108.14-38.3Q107.39-35.75 106.59-32.5 105.79-29.25 105.04-25.85 104.29-22.45 103.62-19.18 102.94-15.9 102.44-13.3L102.44-13.3ZM109.99-1Q109.54-1 108.24-0.88 106.94-0.75 105.54-0.58 104.14-0.4 103.01-0.25 101.89-0.1 101.79-0.05L101.79-0.05Q102.39-2.2 102.99-4.83 103.59-7.45 104.21-10.33 104.84-13.2 105.41-16.15 105.99-19.1 106.54-21.85L106.54-21.85Q107.79-28.25 108.99-35L108.99-35 116.79-36.25Q115.49-29.55 114.19-23.1L114.19-23.1Q113.64-20.35 113.06-17.4 112.49-14.45 111.96-11.55 111.44-8.65 110.91-5.93 110.39-3.2 109.99-1L109.99-1ZM119.69-1.45L112.39 0.25Q113.79-6.8 115.09-13.5L115.09-13.5Q115.59-16.3 116.16-19.38 116.74-22.45 117.24-25.43 117.74-28.4 118.16-31.18 118.59-33.95 118.84-36.25L118.84-36.25Q120.39-36.35 121.84-36.45L121.84-36.45Q123.14-36.55 124.49-36.63 125.84-36.7 126.89-36.8L126.89-36.8Q127.54-32.95 128.04-29.45L128.04-29.45Q128.29-27.95 128.56-26.33 128.84-24.7 129.09-23.2 129.34-21.7 129.59-20.33 129.84-18.95 130.09-17.9L130.09-17.9Q130.29-18.95 130.54-20.33 130.79-21.7 131.09-23.23 131.39-24.75 131.71-26.35 132.04-27.95 132.34-29.45L132.34-29.45Q133.09-32.95 133.89-36.75L133.89-36.75 139.99-37.5Q138.29-30 136.99-23.3L136.99-23.3Q136.39-20.4 135.81-17.45 135.24-14.5 134.74-11.75 134.24-9 133.89-6.68 133.54-4.35 133.34-2.75L133.34-2.75Q133.19-2.75 132.16-2.53 131.14-2.3 129.81-2 128.49-1.7 127.16-1.38 125.84-1.05 125.19-0.85L125.19-0.85Q124.84-4.9 124.44-8.55L124.44-8.55Q124.29-10.1 124.09-11.75 123.89-13.4 123.71-14.9 123.54-16.4 123.36-17.73 123.19-19.05 123.04-19.95L123.04-19.95Q122.89-19.05 122.64-17.75 122.39-16.45 122.14-14.98 121.89-13.5 121.64-11.93 121.39-10.35 121.09-8.85L121.09-8.85Q120.44-5.3 119.69-1.45L119.69-1.45Z" opacity="1" transform="matrix(1,0,0,1,0,0)" fill="#ca3433" class="wordmark-text-0" data-fill-palette-color="primary" id="text-0"></path></svg></g></svg></g></svg></g></svg></g><g></g></svg></g></svg></g></svg></g></svg></g><defs></defs></svg><rect width="320" height="360" fill="none" stroke="none" visibility="hidden"></rect></g></svg></g></svg>